<svg width="96" height="59" viewBox="0 0 96 59" fill="none" xmlns="http://www.w3.org/2000/svg">
<path d="M0.15379 29.4513L11.9853 56.8786C12.2826 57.5678 12.9612 58.0142 13.7118 58.0142H68.6101H82.1111C82.8617 58.0142 83.5403 57.5678 83.8376 56.8786L95.6691 29.4513C95.8762 28.9712 95.8741 28.4267 95.6632 27.9483L83.8422 1.1221C83.5417 0.440134 82.8668 0 82.1216 0H69.5091H13.7005C12.9552 0 12.2812 0.440134 11.9806 1.1221L0.159648 27.9483C-0.0511597 28.4267 -0.0532818 28.9712 0.15379 29.4513Z" fill="#010409"/>
<path d="M28.4524 4.29785H19.1222C18.3526 4.29785 17.6556 4.75239 17.3453 5.45667L7.42344 27.9729C7.20573 28.467 7.20354 29.0294 7.41739 29.5251L17.35 52.5506C17.657 53.2624 18.3579 53.7233 19.133 53.7233H28.4731C29.824 53.7233 30.7622 52.3781 30.2954 51.1104L22.3101 29.4259C22.149 28.9884 22.1507 28.5076 22.3148 28.0712L30.2699 6.92338C30.7475 5.6536 29.809 4.29785 28.4524 4.29785Z" fill="white"/>
<rect x="40.9258" y="4.29785" width="14.2367" height="48.351" rx="1.94184" fill="white"/>
<path d="M67.6414 4.29785H76.9715C77.7411 4.29785 78.4381 4.75239 78.7485 5.45667L88.6703 27.9729C88.888 28.467 88.8902 29.0294 88.6764 29.5251L78.7437 52.5506C78.4367 53.2624 77.7358 53.7233 76.9607 53.7233H67.6206C66.2697 53.7233 65.3316 52.3781 65.7984 51.1104L73.7837 29.4259C73.9448 28.9884 73.9431 28.5076 73.779 28.0712L65.8239 6.92338C65.3462 5.6536 66.2847 4.29785 67.6414 4.29785Z" fill="white"/>
</svg>
